# xmcd
#
# Track frame offsets:
#	150
#	14990
#	26880
#	44287
#	61227
#	74540
#	90728
#	107563
#	121347
#	139045
#	153929
#	164439
#	178940
#	198063
#
# Disc length: 2767 seconds
#
# Revision: 3
# Processed by: cddbd v1.4b41PL3 Copyright (c) Steve Scherf et al.
# Submitted via: CDmax 1.7.6
#
DISCID=c40acd0e
DTITLE=Lonesome Brothers
DYEAR=1900
DGENRE=
TTITLE0=Eyes Wide Open
TTITLE1=I Need a Second Chance
TTITLE2=Strictly Pavement
TTITLE3=All Around You
TTITLE4=Soul Thief
TTITLE5=Down by the Water
TTITLE6=Three Sisters
TTITLE7=Warm Vinyl
TTITLE8=Down in the Night
TTITLE9=You Don't Have My Number
TTITLE10=Catherine
TTITLE11=I Cry For You
TTITLE12=Red House
TTITLE13=String of Failures
EXTD=
EXTT0=
EXTT1=
EXTT2=
EXTT3=
EXTT4=
EXTT5=
EXTT6=
EXTT7=
EXTT8=
EXTT9=
EXTT10=
EXTT11=
EXTT12=
EXTT13=
PLAYORDER=
